<svg xmlns="http://www.w3.org/2000/svg" viewBox="0 0 909.47 467.49"><defs><style>.cls-1{fill:#66a7dd;}.cls-2{fill:#28649e;}.cls-3{fill:#031f4b;}.cls-4{fill:#82d978;}.cls-5{fill:#ff910d;}.cls-6{fill:#ffd494;}.cls-7{fill:#fe94b3;}.cls-8{fill:#5fd94c;}.cls-9{fill:#fe9cbd;}</style></defs><g id="Layer_2" data-name="Layer 2"><path class="cls-1" d="M248.65,217.92a38.92,38.92,0,0,1-16.34-3.41,26.25,26.25,0,0,1-11.91-10.92q-4.43-7.5-4.42-20V129.43q0-12.51,4.58-20a27.27,27.27,0,0,1,12.09-10.92,39.3,39.3,0,0,1,16.5-3.42q10.66,0,17.75,3.84a27,27,0,0,1,10.66,9.83,24,24,0,0,1,3.59,12.5q0,2.83-.75,3.75a2.74,2.74,0,0,1-2.25.92c-1.45,0-2.31-.36-2.59-1.09a5.35,5.35,0,0,1-.41-1.91,31.44,31.44,0,0,0-1.25-6.75,19.85,19.85,0,0,0-11.67-12.84q-5.09-2.25-13.25-2.25-13.17,0-20.08,6.92T222,129.43v54.16q0,14.67,7,21.5t20.67,6.83q8.32,0,13.16-2.16a18.27,18.27,0,0,0,7.34-5.5,20.62,20.62,0,0,0,3.5-7.17c.66-2.55,1.16-4.89,1.5-7a6.19,6.19,0,0,1,.66-2.08c.34-.61,1.11-.92,2.34-.92a2.62,2.62,0,0,1,2.25,1,6.86,6.86,0,0,1,.75,3.83,23.41,23.41,0,0,1-3.67,12.34,27.34,27.34,0,0,1-10.92,9.83Q259.32,217.93,248.65,217.92Z"/><path class="cls-1" d="M248.65,220.69A41.89,41.89,0,0,1,231.17,217,29,29,0,0,1,218,205c-3.19-5.4-4.8-12.6-4.8-21.4V129.43c0-8.82,1.68-16,5-21.44A30,30,0,0,1,231.5,96a42.31,42.31,0,0,1,17.65-3.67c7.53,0,14,1.4,19.06,4.17a29.8,29.8,0,0,1,11.72,10.84,26.87,26.87,0,0,1,4,13.92c0,2.64-.43,4.34-1.38,5.5a5.38,5.38,0,0,1-4.38,1.93c-3.55,0-4.76-1.79-5.17-2.86a8.23,8.23,0,0,1-.59-2.81,28.35,28.35,0,0,0-1.15-6.08,17,17,0,0,0-10.13-11.07c-3-1.34-7.1-2-12.13-2-8,0-14.08,2.06-18.13,6.11s-6.11,10.6-6.11,19.47v54.16c0,9,2.08,15.53,6.17,19.53s10.41,6,18.74,6c5.14,0,9.19-.64,12-1.92a15.73,15.73,0,0,0,6.26-4.64,17.8,17.8,0,0,0,3-6.2c.64-2.46,1.13-4.72,1.45-6.74a8.87,8.87,0,0,1,1-3c.59-1.08,1.89-2.36,4.76-2.36a5.4,5.4,0,0,1,4.46,2.11c.88,1.18,1.3,2.92,1.3,5.49a26.24,26.24,0,0,1-4.07,13.77,30.18,30.18,0,0,1-12,10.83C262.64,219.29,256.18,220.69,248.65,220.69Zm.5-122.84A36.86,36.86,0,0,0,233.79,101a24.64,24.64,0,0,0-10.87,9.85c-2.77,4.53-4.18,10.78-4.18,18.56v54.16c0,7.8,1.36,14.06,4,18.6a23.27,23.27,0,0,0,10.68,9.8,36.22,36.22,0,0,0,15.19,3.17c6.62,0,12.22-1.18,16.62-3.51l.72-.39c-.65.36-1.33.7-2.05,1-3.61,1.62-8.29,2.41-14.29,2.41-9.82,0-17.42-2.57-22.6-7.62s-7.83-13-7.83-23.48V129.43c0-10.38,2.6-18.25,7.73-23.37s12.53-7.73,22-7.73c5.8,0,10.64.84,14.37,2.49a22.6,22.6,0,0,1,13.2,14.59,33.75,33.75,0,0,1,1.35,7.36v.16a1.27,1.27,0,0,0,0,.23c.09,0,.21,0,.3,0a8.39,8.39,0,0,0,.16-1.9,21.38,21.38,0,0,0-3.2-11.08,24.35,24.35,0,0,0-9.61-8.82C261.29,99,255.76,97.85,249.15,97.85Zm28.87,92a3.88,3.88,0,0,0-.14.63c-.35,2.24-.88,4.68-1.56,7.31a23.34,23.34,0,0,1-4,8.12,18.66,18.66,0,0,1-4.88,4.47,23.73,23.73,0,0,0,7.65-7.56,20.74,20.74,0,0,0,3.27-10.89,8.58,8.58,0,0,0-.19-2.08Zm-.38.05Zm.5-66.06h0Zm0-.43Zm.26-.27Z"/><path class="cls-1" d="M367.14,217.92a38.59,38.59,0,0,1-16.5-3.41A26,26,0,0,1,339,203.59q-4.34-7.5-4.34-20V129.43q0-12.51,4.34-20a26,26,0,0,1,11.66-10.92,38.59,38.59,0,0,1,16.5-3.42,39.19,39.19,0,0,1,16.59,3.42,25.94,25.94,0,0,1,11.75,10.92q4.32,7.5,4.33,20v54.16q0,12.49-4.33,20a25.94,25.94,0,0,1-11.75,10.92A39.19,39.19,0,0,1,367.14,217.92Zm0-6q12.51,0,19.59-6.91t7.08-21.42V129.43q0-14.5-7.08-21.42t-19.59-6.92q-12.5,0-19.5,6.92t-7,21.42v54.16q0,14.5,7,21.42T367.14,211.92Z"/><path class="cls-1" d="M367.14,220.69A41.46,41.46,0,0,1,349.48,217a28.77,28.77,0,0,1-12.89-12c-3.12-5.4-4.71-12.59-4.71-21.38V129.43c0-8.79,1.59-16,4.71-21.38a28.77,28.77,0,0,1,12.89-12,41.49,41.49,0,0,1,17.66-3.68A42.2,42.2,0,0,1,384.88,96a28.82,28.82,0,0,1,13,12c3.12,5.4,4.7,12.59,4.7,21.38v54.16c0,8.79-1.58,16-4.7,21.38a28.71,28.71,0,0,1-13,12.05A42.14,42.14,0,0,1,367.14,220.69Zm0-122.84A36.15,36.15,0,0,0,351.81,101a23.09,23.09,0,0,0-10.44,9.8c-2.63,4.55-4,10.81-4,18.62v54.16c0,7.81,1.33,14.07,4,18.62A23,23,0,0,0,351.81,212a36,36,0,0,0,15.33,3.16A36.63,36.63,0,0,0,382.57,212a23,23,0,0,0,10.52-9.79c2.63-4.55,4-10.82,4-18.62V129.43c0-7.8-1.33-14.07-4-18.62A23,23,0,0,0,382.57,101,36.63,36.63,0,0,0,367.14,97.85Zm0,116.84c-9.05,0-16.26-2.6-21.44-7.72s-7.82-13-7.82-23.38V129.43c0-10.39,2.63-18.26,7.82-23.38s12.4-7.72,21.44-7.72,16.28,2.59,21.51,7.7,7.92,13,7.92,23.4v54.16c0,10.4-2.66,18.27-7.91,23.39S376.18,214.69,367.14,214.69Zm0-110.84c-7.64,0-13.39,2-17.56,6.12s-6.17,10.6-6.17,19.46v54.16c0,8.86,2.07,15.4,6.17,19.45s9.91,6.12,17.56,6.12,13.43-2,17.66-6.13,6.25-10.59,6.25-19.44V129.43c0-8.85-2.1-15.39-6.25-19.44S374.79,103.85,367.14,103.85Z"/><path class="cls-1" d="M462.64,216.92a3.19,3.19,0,0,1-2.08-.75,2.74,2.74,0,0,1-.92-2.25v-116a2.47,2.47,0,0,1,.92-2.25,3.77,3.77,0,0,1,2.08-.59,2.86,2.86,0,0,1,2.17,1.17,19.18,19.18,0,0,1,1.83,2.58,19.38,19.38,0,0,1,1.17,2.25l51,101V97.93a2.51,2.51,0,0,1,.91-2.17,3.58,3.58,0,0,1,4.17,0,2.52,2.52,0,0,1,.92,2.17v116a2.74,2.74,0,0,1-.92,2.25,3.2,3.2,0,0,1-2.08.75c-1.12,0-2.06-.72-2.84-2.16s-1.44-2.72-2-3.84L465.64,109.76V213.92a2.74,2.74,0,0,1-.92,2.25A3.19,3.19,0,0,1,462.64,216.92Z"/><path class="cls-1" d="M521.81,219.69c-1.52,0-3.66-.63-5.27-3.63-.78-1.44-1.46-2.75-2-3.9L468.4,121.3v92.62a5.44,5.44,0,0,1-1.92,4.39,6,6,0,0,1-3.84,1.38,6,6,0,0,1-3.83-1.38,5.4,5.4,0,0,1-1.93-4.39v-116a5,5,0,0,1,2.19-4.58,6.49,6.49,0,0,1,3.57-1,5.52,5.52,0,0,1,4.26,2.13,21.72,21.72,0,0,1,2.12,3,22.1,22.1,0,0,1,1.3,2.5l45.73,90.56V97.93a5.13,5.13,0,0,1,2.05-4.4,6.14,6.14,0,0,1,3.71-1.2,6.21,6.21,0,0,1,3.7,1.19,5.18,5.18,0,0,1,2.06,4.41v116a5.42,5.42,0,0,1-1.93,4.39A6,6,0,0,1,521.81,219.69Zm-59-5.49Zm-.44-.09a.43.43,0,0,0,.46,0,.92.92,0,0,0,0-.19V109.76l5.22-1.25,51.34,101.17c.55,1.11,1.21,2.37,2,3.77a3.19,3.19,0,0,0,.5.71.39.39,0,0,0,.14,0s0-.1,0-.19v-116a.09.09,0,0,0,0-.05,1.06,1.06,0,0,0-.47,0V202.09l-5.23,1.25L465.29,102.23l0-.1a15.15,15.15,0,0,0-1-1.89,15.94,15.94,0,0,0-1.55-2.18,2,2,0,0,0-.19-.2h-.12v116C462.4,214,462.41,214.07,462.41,214.11ZM521.59,97.69Z"/><path class="cls-1" d="M243.06,378.11q-10.67,0-17.83-3.25t-10.75-7.34q-3.58-4.08-3.58-6.25a3.13,3.13,0,0,1,.5-1.66,4.64,4.64,0,0,1,1.16-1.34,2.11,2.11,0,0,1,1.17-.5c.78,0,1.67.73,2.67,2.17a38.21,38.21,0,0,0,4.33,5,24.81,24.81,0,0,0,7.92,5q5.08,2.16,13.58,2.17,9.17,0,15.33-3.09a20.83,20.83,0,0,0,9.34-9.08q3.17-6,3.16-14.83,0-9.17-3.08-14.67a25.28,25.28,0,0,0-8.08-8.83A49.22,49.22,0,0,0,248,316.19q-5.91-2.08-11.92-4.08a50.54,50.54,0,0,1-11-5.17,24.07,24.07,0,0,1-8.08-8.58q-3.09-5.42-3.08-14.25,0-9,3.16-14.67a23.57,23.57,0,0,1,8.17-8.75,32.91,32.91,0,0,1,10.67-4.25,54.19,54.19,0,0,1,10.83-1.17,55.45,55.45,0,0,1,9.83.84,61.34,61.34,0,0,1,8.42,2.08,23.68,23.68,0,0,1,5.92,2.75q2.16,1.5,2.16,3a3.47,3.47,0,0,1-.41,1.5,5.55,5.55,0,0,1-1.09,1.5,2,2,0,0,1-1.5.67,9.19,9.19,0,0,1-3.83-1.59,40,40,0,0,0-7.42-3.16,39.32,39.32,0,0,0-12.25-1.59,43.15,43.15,0,0,0-12.33,1.84A20.92,20.92,0,0,0,224,269.77q-4.08,4.85-4.08,13.84,0,7.67,3.08,12.25a22.24,22.24,0,0,0,8.08,7.25A67.53,67.53,0,0,0,242,307.69q5.91,1.92,11.92,4.25a46.32,46.32,0,0,1,11,6.08A27.31,27.31,0,0,1,273,328.11q3.07,6.33,3.08,16.5,0,11.83-4.25,19.25a25.57,25.57,0,0,1-11.66,10.83A40.42,40.42,0,0,1,243.06,378.11Z"/><path class="cls-1" d="M243.06,380.87c-7.47,0-13.85-1.18-19-3.5s-9.05-5-11.68-8c-2.92-3.31-4.27-5.88-4.27-8.07a6,6,0,0,1,.89-3.08,7.35,7.35,0,0,1,1.88-2.13,4.7,4.7,0,0,1,2.82-1.05c2.61,0,4.36,2.53,4.94,3.36a35.59,35.59,0,0,0,4,4.62,22.32,22.32,0,0,0,7,4.41c3,1.29,7.23,1.94,12.5,1.94,5.65,0,10.4-.93,14.1-2.79a17.9,17.9,0,0,0,8.12-7.9c1.89-3.58,2.85-8.14,2.85-13.54,0-5.61-.92-10.09-2.73-13.32a22.75,22.75,0,0,0-7.21-7.89,46.25,46.25,0,0,0-10.3-5.11c-3.95-1.39-7.95-2.76-11.87-4.06a53.08,53.08,0,0,1-11.6-5.46,26.68,26.68,0,0,1-9-9.55c-2.28-4-3.44-9.26-3.44-15.61s1.18-11.84,3.51-16a26.28,26.28,0,0,1,9.13-9.75,35.76,35.76,0,0,1,11.56-4.6,57.16,57.16,0,0,1,21.71-.35,64.31,64.31,0,0,1,8.8,2.18,26.3,26.3,0,0,1,6.62,3.1c2.23,1.55,3.35,3.32,3.35,5.27a6.11,6.11,0,0,1-.7,2.73,8.54,8.54,0,0,1-1.6,2.22,4.81,4.81,0,0,1-3.46,1.48c-1.33,0-2.95-.61-5.24-2A34.51,34.51,0,0,0,246.56,264,40.49,40.49,0,0,0,235,265.75a18.1,18.1,0,0,0-8.93,5.81c-2.28,2.69-3.43,6.75-3.43,12.05,0,4.53.88,8.13,2.61,10.71a19.48,19.48,0,0,0,7.09,6.35,64.14,64.14,0,0,0,10.47,4.39c4,1.3,8,2.74,12.07,4.31a49,49,0,0,1,11.65,6.44,30.07,30.07,0,0,1,8.91,11.09c2.23,4.59,3.36,10.54,3.36,17.71,0,8.34-1.55,15.28-4.61,20.62a28.38,28.38,0,0,1-12.91,12A43.39,43.39,0,0,1,243.06,380.87ZM213.77,361h0a.77.77,0,0,0-.1.24c0,.05.07,1.21,2.9,4.43,2.11,2.41,5.41,4.65,9.81,6.64s10,3,16.69,3A37.83,37.83,0,0,0,259,372.18a22.67,22.67,0,0,0,10.43-9.7C272,358,273.3,352,273.3,344.61c0-6.32-.94-11.47-2.8-15.3a24.72,24.72,0,0,0-7.26-9.08,43.52,43.52,0,0,0-10.35-5.72c-3.92-1.52-7.88-2.93-11.76-4.19a70,70,0,0,1-11.37-4.78,24.89,24.89,0,0,1-9.07-8.14c-2.36-3.5-3.55-8.14-3.55-13.79,0-6.65,1.59-11.9,4.73-15.62a23.79,23.79,0,0,1,11.57-7.53,46.2,46.2,0,0,1,13.12-1.95,42.23,42.23,0,0,1,13.13,1.73,41.76,41.76,0,0,1,7.95,3.41,13.45,13.45,0,0,0,2.18,1.11,3.25,3.25,0,0,0,.36-.55,1.78,1.78,0,0,1,.08-.18,3.9,3.9,0,0,0-.94-.82,21.56,21.56,0,0,0-5.21-2.4,57.86,57.86,0,0,0-8-2,51.56,51.56,0,0,0-19.63.32,30.3,30.3,0,0,0-9.77,3.89,21,21,0,0,0-7.21,7.75c-1.86,3.34-2.81,7.82-2.81,13.32s.91,9.71,2.72,12.88a21.43,21.43,0,0,0,7.16,7.62,47.78,47.78,0,0,0,10.4,4.88c3.95,1.31,8,2.69,12,4.1a51.67,51.67,0,0,1,11.53,5.72,28.22,28.22,0,0,1,9,9.78c2.28,4.07,3.43,9.46,3.43,16,0,6.31-1.17,11.73-3.48,16.12a23.62,23.62,0,0,1-10.54,10.26c-4.48,2.24-10.05,3.38-16.57,3.38-6.1,0-10.9-.78-14.67-2.39a27.66,27.66,0,0,1-8.78-5.59,39.92,39.92,0,0,1-4.65-5.38Z"/><path class="cls-1" d="M354.39,377.11a3.19,3.19,0,0,1-2.08-.75,2.74,2.74,0,0,1-.92-2.25V261.27H321.73a2.79,2.79,0,0,1-2.17-.91,3,3,0,0,1,0-4.17,2.8,2.8,0,0,1,2.17-.92h65.16a2.74,2.74,0,0,1,3,2.84,3.82,3.82,0,0,1-.66,2.16,2.61,2.61,0,0,1-2.34,1h-29.5V374.11a2.74,2.74,0,0,1-.91,2.25A3.23,3.23,0,0,1,354.39,377.11Z"/><path class="cls-1" d="M354.39,379.87a6,6,0,0,1-3.83-1.38,5.39,5.39,0,0,1-1.93-4.38V264h-26.9a5.51,5.51,0,0,1-4.22-1.83,5.8,5.8,0,0,1,0-7.88,5.53,5.53,0,0,1,4.21-1.82h65.16a5.5,5.5,0,0,1,4.3,1.75,5.63,5.63,0,0,1,1.46,3.85,6.55,6.55,0,0,1-1.13,3.69,5.2,5.2,0,0,1-4.63,2.24H360.15V374.11a5.39,5.39,0,0,1-1.93,4.38A6,6,0,0,1,354.39,379.87Zm-.23-5.58a.43.43,0,0,0,.46,0,.87.87,0,0,0,0-.18V258.51h32.42a.92.92,0,0,0,.08-.4v-.06H321.59c-.1.13-.1.17-.1.22s0,.11.11.22,0,0,.13,0h32.42v115.6C354.15,374.19,354.16,374.25,354.16,374.29Zm33.07-115.81Z"/><path class="cls-1" d="M501.55,377.11c-1.11,0-2.05-.73-2.83-2.17s-1.44-2.72-2-3.83l-26.66-52H445.39v55a2.74,2.74,0,0,1-.92,2.25,3.2,3.2,0,0,1-2.08.75,3.17,3.17,0,0,1-2.08-.75,2.71,2.71,0,0,1-.92-2.25v-116a2.45,2.45,0,0,1,.83-1.92,4,4,0,0,1,2.17-.92h27.83a48.44,48.44,0,0,1,17,2.92A25.94,25.94,0,0,1,499.8,268q4.76,6.93,4.75,19.09,0,10.67-3.75,17.33a24.56,24.56,0,0,1-10.08,10,41.27,41.27,0,0,1-14.16,4.33l27.49,53.5a2.59,2.59,0,0,1,.42,1,4.77,4.77,0,0,1,.08.84,2.86,2.86,0,0,1-.41,1.5,3.41,3.41,0,0,1-1.09,1.08A2.73,2.73,0,0,1,501.55,377.11Zm-56.16-64h24.83q12.5,0,20.42-6.09t7.91-19.91q0-13.83-7.91-19.84t-20.42-6H445.39Z"/><path class="cls-1" d="M501.55,379.87c-1.51,0-3.65-.63-5.26-3.63-.77-1.42-1.46-2.74-2-3.9l-25.88-50.47H448.15v52.24a5.41,5.41,0,0,1-1.93,4.38,6,6,0,0,1-7.67,0,5.41,5.41,0,0,1-1.92-4.38v-116a5.16,5.16,0,0,1,1.75-4,6.53,6.53,0,0,1,3.66-1.6l.35,0h27.83a51.33,51.33,0,0,1,18,3.09,28.78,28.78,0,0,1,13.9,10.86c3.47,5.06,5.24,12,5.24,20.65,0,7.56-1.39,13.84-4.11,18.68A27.36,27.36,0,0,1,492,316.88a42.69,42.69,0,0,1-11.27,4l25.71,50a5.23,5.23,0,0,1,.74,1.91,7.59,7.59,0,0,1,.13,1.31,5.48,5.48,0,0,1-.84,3,6.12,6.12,0,0,1-2,2A5.49,5.49,0,0,1,501.55,379.87Zm-58.95-5.49Zm-.44-.09a.43.43,0,0,0,.46,0s0-.1,0-.18V316.35h29.11l27.44,53.5c.57,1.13,1.23,2.4,2,3.78a2.63,2.63,0,0,0,.48.69.59.59,0,0,0,.17-.18c0-.11,0-.21,0-.33l-.16-.28-29.3-57,3.91-.5a38.85,38.85,0,0,0,13.22-4,21.74,21.74,0,0,0,9-8.91c2.25-4,3.39-9.38,3.39-16,0-7.51-1.43-13.4-4.26-17.52a23,23,0,0,0-11.27-8.81,45.9,45.9,0,0,0-16-2.74H442.59a1.26,1.26,0,0,0-.44.14V374.11A.87.87,0,0,0,442.16,374.29Zm-.11-.07Zm28.17-58.35H442.63V258.51h27.59c8.91,0,16.34,2.21,22.09,6.56,6,4.54,9,11.95,9,22s-3,17.52-9,22.1C486.58,313.63,479.14,315.87,470.22,315.87Zm-22.07-5.52h22.07c7.67,0,14-1.86,18.74-5.52,4.6-3.53,6.83-9.33,6.83-17.72S493.56,273,489,269.48c-4.76-3.61-11.07-5.44-18.75-5.44H448.15Z"/><path class="cls-1" d="M550.88,377.11a3.38,3.38,0,0,1-1.41-.34,2.77,2.77,0,0,1-1.17-.91,2.36,2.36,0,0,1-.42-1.42,2.34,2.34,0,0,1,.17-1l36.17-116.83a2.84,2.84,0,0,1,1.16-1.84,3.55,3.55,0,0,1,1.84-.49,3.5,3.5,0,0,1,1.91.58,2.93,2.93,0,0,1,1.25,1.75l35.84,116.83a1.86,1.86,0,0,1,.16.83,2.19,2.19,0,0,1-.5,1.34,4,4,0,0,1-1.25,1.08,3.2,3.2,0,0,1-1.58.42,2.81,2.81,0,0,1-1.58-.5,2.86,2.86,0,0,1-1.09-1.67l-8.5-27.33H562.22l-8.34,27.33a2.73,2.73,0,0,1-1.16,1.67A3.55,3.55,0,0,1,550.88,377.11Zm13.17-35.5h46l-22.83-74.67Z"/><path class="cls-1" d="M623.05,379.87a5.52,5.52,0,0,1-3.11-1,5.41,5.41,0,0,1-2.21-3.21l-7.88-25.32H564.26l-7.74,25.37a5.36,5.36,0,0,1-2.38,3.23,6.12,6.12,0,0,1-5.8.32,5.42,5.42,0,0,1-2.29-1.84,5.51,5.51,0,0,1-.59-5l36.1-116.62a5.4,5.4,0,0,1,2.41-3.45,6.27,6.27,0,0,1,6.64.12,5.78,5.78,0,0,1,2.43,3.31l35.77,116.64a4.75,4.75,0,0,1,.33,1.79,5,5,0,0,1-1,3,6.85,6.85,0,0,1-2.12,1.85A6,6,0,0,1,623.05,379.87Zm.09-5.44Zm-72.46-.14a.79.79,0,0,0,.2,0,.75.75,0,0,0,.31,0s0-.07,0-.11l8.94-29.34h53.75l9.1,29.28.07.21a.39.39,0,0,0,.2-.05,2.49,2.49,0,0,0,.24-.17L587.74,257.42a.59.59,0,0,0-.09-.23c-.46-.3-.57-.16-.69-.12a1.42,1.42,0,0,0-.06.21l0,.15Zm63.1-29.92H560.3l26.94-86.81Zm-46-5.53h38.52L587.2,276.32Z"/><path class="cls-1" d="M680.71,377.11a3.2,3.2,0,0,1-2.08-.75,2.74,2.74,0,0,1-.92-2.25v-116a2.52,2.52,0,0,1,.92-2.17,3.58,3.58,0,0,1,4.17,0,2.51,2.51,0,0,1,.91,2.17v116a2.74,2.74,0,0,1-.91,2.25A3.21,3.21,0,0,1,680.71,377.11Z"/><path class="cls-1" d="M680.71,379.87a6,6,0,0,1-3.83-1.38,5.39,5.39,0,0,1-1.93-4.38v-116a5.13,5.13,0,0,1,2.06-4.4,6.45,6.45,0,0,1,7.41,0,5.18,5.18,0,0,1,2.06,4.41v116a5.41,5.41,0,0,1-1.93,4.38A6,6,0,0,1,680.71,379.87Zm-.22-5.58a.43.43,0,0,0,.45,0,.87.87,0,0,0,0-.18v-116a1.24,1.24,0,0,0-.47,0V374.11A.87.87,0,0,0,680.49,374.29Z"/><path class="cls-1" d="M747.71,377.11a3.19,3.19,0,0,1-2.08-.75,2.74,2.74,0,0,1-.92-2.25v-116a2.47,2.47,0,0,1,.92-2.25,3.77,3.77,0,0,1,2.08-.59,2.9,2.9,0,0,1,2.17,1.17,17.54,17.54,0,0,1,1.83,2.58,17.91,17.91,0,0,1,1.17,2.25l51,101V258.11a2.51,2.51,0,0,1,.91-2.17,3.58,3.58,0,0,1,4.17,0,2.52,2.52,0,0,1,.92,2.17v116a2.74,2.74,0,0,1-.92,2.25,3.2,3.2,0,0,1-2.08.75c-1.11,0-2.06-.73-2.84-2.17s-1.44-2.72-2-3.83L750.71,269.94V374.11a2.74,2.74,0,0,1-.91,2.25A3.23,3.23,0,0,1,747.71,377.11Z"/><path class="cls-1" d="M806.88,379.87c-1.52,0-3.66-.63-5.27-3.63-.77-1.43-1.46-2.74-2-3.9l-46.1-90.86v92.63a5.41,5.41,0,0,1-1.92,4.38,6,6,0,0,1-7.67,0,5.39,5.39,0,0,1-1.93-4.38v-116a5,5,0,0,1,2.19-4.58,6.58,6.58,0,0,1,3.57-1,5.55,5.55,0,0,1,4.27,2.13,20.85,20.85,0,0,1,2.11,3,21.33,21.33,0,0,1,1.3,2.51l45.73,90.55V258.11a5.13,5.13,0,0,1,2-4.4,6.34,6.34,0,0,1,7.41,0,5.17,5.17,0,0,1,2.06,4.41v116a5.39,5.39,0,0,1-1.93,4.38A6,6,0,0,1,806.88,379.87Zm-59-5.49Zm-.45-.09a.43.43,0,0,0,.46,0,.87.87,0,0,0,0-.18V269.94l5.23-1.25,51.33,101.17c.56,1.12,1.22,2.38,2,3.77a3.19,3.19,0,0,0,.5.71.39.39,0,0,0,.14,0s0-.1,0-.18v-116a1.29,1.29,0,0,0-.48,0V362.27l-5.23,1.25-51-101.1,0-.11a17.75,17.75,0,0,0-2.54-4.07,2,2,0,0,0-.19-.2h-.12V374.11C747.47,374.19,747.48,374.25,747.48,374.29Zm59.18-116.42Z"/><path class="cls-1" d="M566.22,214.82a18.66,18.66,0,0,1-7.34-1.31,14,14,0,0,1-4.71-3,4.8,4.8,0,0,1-1.64-2.94,2.55,2.55,0,0,1,.3-1.14,2.82,2.82,0,0,1,.77-1,1.47,1.47,0,0,1,.93-.37,1.88,1.88,0,0,1,1.37.84,26,26,0,0,0,1.87,2,10.64,10.64,0,0,0,3.11,1.95,12.69,12.69,0,0,0,5.07.85,12.36,12.36,0,0,0,5.35-1,7.63,7.63,0,0,0,3.4-3.1,10,10,0,0,0,1.21-5.16,9.76,9.76,0,0,0-1.21-5.2,10.11,10.11,0,0,0-3.17-3.24,22.55,22.55,0,0,0-4.31-2.16c-1.56-.58-3.12-1.19-4.7-1.82a22,22,0,0,1-4.38-2.33,10.2,10.2,0,0,1-3.21-3.64,14.37,14.37,0,0,1,.14-11.81,10.32,10.32,0,0,1,3.44-3.75,14.42,14.42,0,0,1,4.57-1.92,21.41,21.41,0,0,1,4.81-.58,25.46,25.46,0,0,1,3.84.31,22.91,22.91,0,0,1,3.64.84,9.25,9.25,0,0,1,2.71,1.32,2.16,2.16,0,0,1,1,1.72,2.83,2.83,0,0,1-.23,1,3.84,3.84,0,0,1-.64,1,1.29,1.29,0,0,1-1.06.47,3.56,3.56,0,0,1-1.67-.64,17.36,17.36,0,0,0-2.91-1.28,14.7,14.7,0,0,0-4.77-.64,16,16,0,0,0-4.65.68,6.75,6.75,0,0,0-5,7.08,7,7,0,0,0,1.24,4.35,9.11,9.11,0,0,0,3.2,2.67,38.48,38.48,0,0,0,4.31,1.86q2.34.84,4.71,1.88a19.29,19.29,0,0,1,4.34,2.64,11.42,11.42,0,0,1,3.17,4.15,15.66,15.66,0,0,1,1.2,6.61,15.34,15.34,0,0,1-1.8,7.86,11.12,11.12,0,0,1-5,4.56A17.12,17.12,0,0,1,566.22,214.82Z"/><path class="cls-1" d="M612.17,214.35a2.72,2.72,0,0,1-1.53-.44,1.46,1.46,0,0,1-.67-1.32V169.2H598.75a1.47,1.47,0,0,1-1.27-.64,2.47,2.47,0,0,1,0-2.9,1.47,1.47,0,0,1,1.27-.64h26.78a1.38,1.38,0,0,1,1.27.64,2.54,2.54,0,0,1,.4,1.38,2.85,2.85,0,0,1-.4,1.49,1.37,1.37,0,0,1-1.27.67H614.38v43.39a1.46,1.46,0,0,1-.7,1.32A2.82,2.82,0,0,1,612.17,214.35Z"/><path class="cls-1" d="M672,214.48a1.67,1.67,0,0,1-1.33-.77,9.76,9.76,0,0,1-1-1.59l-10.29-20.24h-8.48v20.71a1.44,1.44,0,0,1-.7,1.32,2.81,2.81,0,0,1-1.5.44,2.75,2.75,0,0,1-1.54-.44,1.46,1.46,0,0,1-.67-1.32V166.71a1.58,1.58,0,0,1,.47-1.15,1.81,1.81,0,0,1,1.2-.54H660a20.64,20.64,0,0,1,7.22,1.21,10.71,10.71,0,0,1,5.24,4.12,14,14,0,0,1,2,8,15.25,15.25,0,0,1-1.37,6.89,10.07,10.07,0,0,1-3.74,4.15,15.54,15.54,0,0,1-5.31,2l10.29,20a.79.79,0,0,1,.23.44,3.61,3.61,0,0,1,0,.44,1.94,1.94,0,0,1-.36,1.08,2.94,2.94,0,0,1-1,.88A2.48,2.48,0,0,1,672,214.48ZM650.91,188H660a11.35,11.35,0,0,0,7.25-2.19q2.78-2.19,2.77-7.26c0-3.42-.92-5.84-2.77-7.29a11.51,11.51,0,0,0-7.25-2.15h-9.08Z"/><path class="cls-1" d="M708.82,214.75a17.08,17.08,0,0,1-7.08-1.41,11,11,0,0,1-5-4.59,16.52,16.52,0,0,1-1.87-8.44v-33.6a1.39,1.39,0,0,1,.67-1.29,2.86,2.86,0,0,1,1.53-.4,2.92,2.92,0,0,1,1.54.4,1.4,1.4,0,0,1,.66,1.29v33.6q0,5.26,2.54,7.8a9.53,9.53,0,0,0,7,2.53,9.64,9.64,0,0,0,7.08-2.53q2.54-2.54,2.53-7.8v-33.6a1.41,1.41,0,0,1,.67-1.29,2.92,2.92,0,0,1,1.54-.4,2.86,2.86,0,0,1,1.53.4,1.39,1.39,0,0,1,.67,1.29v33.6a16.74,16.74,0,0,1-1.84,8.44,10.76,10.76,0,0,1-5,4.59A17.57,17.57,0,0,1,708.82,214.75Z"/><path class="cls-1" d="M759.44,214.75a17,17,0,0,1-6.94-1.41,11,11,0,0,1-5.08-4.59,16.52,16.52,0,0,1-1.87-8.44V179.46a15.94,15.94,0,0,1,1.94-8.43,11.24,11.24,0,0,1,5.11-4.59,16.82,16.82,0,0,1,7-1.42,16.54,16.54,0,0,1,7.48,1.55,11.72,11.72,0,0,1,4.7,4.12,10.26,10.26,0,0,1,1.64,5.67,2.86,2.86,0,0,1-.57,2.12,3,3,0,0,1-3.34,0,1.9,1.9,0,0,1-.56-1.18,9.93,9.93,0,0,0-.37-2.46,8.11,8.11,0,0,0-1.34-2.7,7,7,0,0,0-2.8-2.16,11.6,11.6,0,0,0-4.78-.84q-4.68,0-7.14,2.53T750,179.46v20.85q0,5.34,2.51,7.83t7.31,2.5a10.83,10.83,0,0,0,4.74-.85,6.5,6.5,0,0,0,2.61-2.09,8.28,8.28,0,0,0,1.24-2.7,20.37,20.37,0,0,0,.5-2.66,2.11,2.11,0,0,1,.63-1.32,2.35,2.35,0,0,1,1.57-.44,2.3,2.3,0,0,1,1.7.58,3.13,3.13,0,0,1,.57,2.19,10.24,10.24,0,0,1-1.67,5.63,11.94,11.94,0,0,1-4.77,4.19A16.35,16.35,0,0,1,759.44,214.75Z"/><path class="cls-1" d="M805.39,214.35a2.72,2.72,0,0,1-1.53-.44,1.46,1.46,0,0,1-.67-1.32V169.2H792a1.47,1.47,0,0,1-1.27-.64,2.47,2.47,0,0,1,0-2.9A1.47,1.47,0,0,1,792,165h26.78a1.38,1.38,0,0,1,1.27.64,2.54,2.54,0,0,1,.4,1.38,2.85,2.85,0,0,1-.4,1.49,1.37,1.37,0,0,1-1.27.67H807.6v43.39a1.46,1.46,0,0,1-.7,1.32A2.82,2.82,0,0,1,805.39,214.35Z"/></g><g id="Layer_1" data-name="Layer 1"><path class="cls-1" d="M178,80.24a115,115,0,0,1-14.13-.39c-3.45-.27-6,.68-7.8,3.61A4.64,4.64,0,0,1,154.86,85c-2,1.38-4,3.45-6.23,3.82-3.56.58-7.32.09-11-.13a2.34,2.34,0,0,1-1.6-1.56c-.61-5.41-2.74-7.67-8.18-7.78q-22.59-.47-45.18-.63A20.78,20.78,0,0,0,75.07,80c-8.25,3.25-15.54,8.28-22.7,13.41C47.33,97,42.51,101,37.75,105c.55.87,1.13,1.71,1.75,2.51a32.61,32.61,0,0,0,5.16,5.42,93.15,93.15,0,0,1,15.46-2.72c10.4-.89,20.73-.38,30.64,3.31,3.7,1.38,7.24,3.43,8,7.66a54.72,54.72,0,0,1,.36,10.49c0,2,.6,2.77,2.68,2.78,10.14.05,20.28.19,30.42.36,2.85,0,3.08-.08,3-3-.08-5-.17-10.09-.26-15.7,4.47.15,8.06.44,11.64.34,4.64-.13,7.35,2.64,9.23,6.19,1.43,2.71,3.14,3.74,6.51,3.4a70.65,70.65,0,0,1,15.45.26,7.45,7.45,0,0,0,8.36-7c.28-10.46.49-20.93.54-31.39C186.74,82.85,183.31,80,178,80.24Z"/><rect class="cls-1" x="105.11" y="123.61" width="16.69" height="265.82" rx="8.35" transform="translate(3.06 -1.33) rotate(0.68)"/><path class="cls-2" d="M62.68,281.59c-.67-3-1.42-5.56-1.81-8.21A43.75,43.75,0,0,1,62.7,253.5a21.07,21.07,0,0,1,4.44-7.09c9-10.16,21.19-15.46,33.12-21,12.61-5.9,25.38-11.46,38-17.37a94.74,94.74,0,0,0,21.34-13.49c2.86-2.43,5.12-5.59,7.51-8.53,2.12-2.59,1.57-5.37.1-8.09-.44-.82-.92-1.62-1.67-2.94,2.69,1.31,4.84,2.79,5.48,5.12,1.67,6.1,2.74,12.34,1.48,18.71a11.46,11.46,0,0,1-3.84,6.86,161.1,161.1,0,0,1-21.2,15.16c-13,7.87-27.19,12.85-41.18,18.39-9,3.58-17.94,7.38-25.8,13.28A44.74,44.74,0,0,0,64.33,275.8C63.79,277.55,63.32,279.33,62.68,281.59Z"/><path class="cls-2" d="M169.15,255c3.58,1.58,5.1,3.92,5.36,7.09.37,4.53,1,9.06.94,13.59a10.63,10.63,0,0,1-4.73,9.21c-4.18,2.84-7.77,6.55-11.91,9.47-10.87,7.65-22.86,13.12-35.23,17.9-9.91,3.83-19.57,8.33-29.43,12.31C87.83,327.16,82.8,331.38,78,336c-5.68,5.51-9.08,12.35-11.36,19.82a10.77,10.77,0,0,1-1.6,3.47c-.53-2.68-1.21-5.34-1.56-8.05a44.63,44.63,0,0,1,1.9-18.76A20.24,20.24,0,0,1,69.25,326c4.46-5.57,10.38-9.38,16.47-12.91,13.88-8,28.85-13.76,43.39-20.4,9.88-4.51,19.61-9.27,28.53-15.52,4.68-3.29,9-7,12.12-11.92,1.77-2.77,1.54-5.26.1-7.94A15.07,15.07,0,0,1,169.15,255Z"/><path class="cls-2" d="M100.82,147.28c1.22,4.17,2.42,8.33,3.61,12.44-4.26,2-8.5,3.75-12.57,5.87a58.07,58.07,0,0,0-15.24,10.79,48.08,48.08,0,0,0-12.08,20.39,42.17,42.17,0,0,0-.78,4.8,6.71,6.71,0,0,1-.53-1c-3.31-9.44-2.71-18.91.32-28.21.78-2.43,2.75-4.66,4.64-6.51A134.08,134.08,0,0,1,80.44,155a64.19,64.19,0,0,1,17.16-9.33C99.85,144.88,100.16,145,100.82,147.28Z"/><path class="cls-3" d="M101.19,294l9.5,3.84c-1.08.56-1.56.85-2.08,1.06-5.26,2.17-10.54,4.3-15.79,6.5a2.58,2.58,0,0,1-2.65-.25,95.35,95.35,0,0,1-17.32-12.88,59,59,0,0,1-5.84-7.1c-1.61-2.09-1.33-4.63-1-7a15.49,15.49,0,0,1,2.23-5.57v1.33c.09.06.21.2.29.18,5.19-1.16,8.14,2.38,11.34,5.39,1.45,1.36,2.93,2.68,4.82,4.41-1.13.07-1.74.15-2.35.15-3,0-4.81,1.9-4.1,4.94.39,1.66,1.62,3.12,2.47,4.67a5.93,5.93,0,0,0,1.48.4q8.85.15,17.71.22A5.74,5.74,0,0,0,101.19,294Z"/><path class="cls-3" d="M149.58,338.39l6.8.38c1.24.06,2.48.43,3.26-1.16s1.6-3.37.4-5.09a6.54,6.54,0,0,0-5.25-3.24c-6-.22-12-.47-18.07-.85a10.23,10.23,0,0,1-3.94-1.19c-3-1.55-5.84-3.27-8.74-4.94-.37-.21-.68-.51-1.5-1.12a66.67,66.67,0,0,1,6.67.13,2.66,2.66,0,0,0,3.14-2.09c1-2.76.09-5.1-1.81-7.23,1.33-1.1,2.43-1.05,3.89-.06,6.81,4.6,13.88,8.82,20.5,13.67a93.85,93.85,0,0,1,11.16,10.34c3.1,3.18,3,6,0,9.34a9.48,9.48,0,0,1-2.8,2.62,3.56,3.56,0,0,1-2.93-.69C156.84,344.47,153.44,341.57,149.58,338.39Z"/><path class="cls-3" d="M131.59,241.74c2.44-3.24,2.33-5.6-.44-9.42,1.39-1.22,2.57-.75,4,.18,5.22,3.43,10.67,6.49,15.76,10.08a145,145,0,0,1,12.4,10,31.77,31.77,0,0,1,4.66,5.7c1.32,1.91,1.51,4-.18,5.9a31.42,31.42,0,0,0-2.44,3.2,2.57,2.57,0,0,1-3.72.73c-3.75-2.78-7.26-5.87-11.14-9.06,2.45,0,4.54,0,6.62.09,1.29.07,2.48.26,3.19-1.28s1.49-3.28.32-4.93c-1.31-1.83-2.89-3.18-5.43-3.26-6.36-.2-12.72-.6-19.09-1a4.38,4.38,0,0,1-1.88-.53c-3.56-2-7.08-4.07-10.62-6.11,1.75,0,3.5,0,5.24-.08C129.75,242,130.67,241.84,131.59,241.74Z"/><path class="cls-3" d="M121.48,163.47c5.15-2.26,10-4.4,14.83-6.45a2.27,2.27,0,0,1,1.79.35c6,3.92,12.18,7.67,18,11.94a48.61,48.61,0,0,1,8.52,8.5c2.58,3.16,2.33,4.78-.05,8.09-.55.77-1.13,1.51-1.72,2.24-1.42,1.75-3,1.91-4.81.46q-5.17-4.26-10.32-8.53l6.4.08c1.19,0,2.48.69,3.3-1s1.63-3.37.51-5.11a6.3,6.3,0,0,0-5.18-3.32c-6.16-.24-12.33-.52-18.48-.92a9.07,9.07,0,0,1-3.54-1.16C127.69,167.08,124.76,165.34,121.48,163.47Z"/><path class="cls-3" d="M111.05,377.73c-5.3,2.26-10.61,4.51-15.94,6.71a2.27,2.27,0,0,1-1.8.06c-6.49-4.12-12.93-8.33-18.37-13.83a38.09,38.09,0,0,1-4.15-4.91c-3-4.26-3.2-6.62-1.29-11.37,2.74-.11,5.43-.24,8.12-.31a1.66,1.66,0,0,1,1,.47c2.78,2.57,8.45,8.27,8.54,8.51-1.64.12,21,11.53,23.85,12.84C111.56,376.13,111.65,377.47,111.05,377.73Z"/><path class="cls-3" d="M76.5,205.57c-1.5,2.51-2.08,5.07.19,7.39a5.05,5.05,0,0,0,2.93,1.53c3.07.21,6.16.06,9.25.14,3.89.11,7.77.32,11.66.48a32.76,32.76,0,0,1,5.26.27,35,35,0,0,1,5.23,2,8.77,8.77,0,0,1-1.42,1c-5.56,2.3-11.12,4.59-16.71,6.83a2,2,0,0,1-1.61,0c-6.57-4.09-13.06-8.31-18.54-13.81a48.71,48.71,0,0,1-5.17-6.8c-1.73-2.49-1.32-5.28-.67-8a1.76,1.76,0,0,1,1.31-1c2.48-.07,5,0,7.44.09a3.57,3.57,0,0,1,1.79,1c2.93,2.52,5.81,5.07,8.71,7.62-2.54.07-5.09.08-7.63.28A6,6,0,0,0,76.5,205.57Z"/><path class="cls-4" d="M70.52,351.73c.65-1.51,1.11-2.76,1.74-3.91a1.65,1.65,0,0,1,1.29-.61q22.08.72,44.16,1.52a1.88,1.88,0,0,1,.52.2l0,4Z"/><path class="cls-4" d="M107.49,272.93l-24.86-.51c-3.74-.07-7.48-.09-11.62-.14.71-1.62,1.21-2.9,1.84-4.12a1.42,1.42,0,0,1,1.11-.59c5.88.22,11.75.49,17.62.75l-4.14-.05v.61l10.84-.36c3.51.23,7,.55,10.53.67,2.86.09,5.73-.05,8.59-.08.81,0,1.72-.11,1.39,1.21l-.78,2-4.06,0L91.13,272c4.74.46,9.49.5,14.24.59A14.17,14.17,0,0,1,107.49,272.93Z"/><path class="cls-4" d="M105,190.28c3.51,0,7-.12,10.52,0,.28,0,.64,1.79.63,2.74,0,.35-1,1-1.52,1-5.67,0-11.35,0-17-.14-5-.11-10-.35-15-.53l18.93.22v-.47l-22.82-.27c-1-.14-1.91-.34-2.87-.43-2.3-.2-4.6-.36-6.91-.54L70.13,189l13.53.16-5.35-.06a24.14,24.14,0,0,0,6.15.52c1.7,0,3.4-.19,5.1-.29l11.4.44-5.74-.07v.43Z"/><path class="cls-5" d="M85.75,331.92c2.26-1.5,4.46-3.11,6.81-4.45.71-.4,1.83-.14,2.75-.06,6.39.57,12.79,1.12,19.16,1.79a31.15,31.15,0,0,1,5.9,1.26,2.15,2.15,0,0,1,1,1.86c-.34,1.1-.65,2.42-2.48,2.27-4.53-.38-9.08-.56-13.62-.83l-17.43-1.07c-.65,0-1.3-.15-1.95-.23Z"/><path class="cls-6" d="M122.85,334.73l1.6-4.26c3.08-.27,6.38-.67,9.74.29,1.39.39,3-.18,4.54-.11,5.54.25,11.1.44,16.62,1,1.14.12,2.4,1.57,3.11,2.71s-.66,2.33-2.2,2.28c-2.41-.08-4.82-.22-7.23-.35l-25.09-1.42C123.62,334.85,123.3,334.79,122.85,334.73Z"/><path class="cls-5" d="M83.35,173.52c2.25-1.5,4.5-3,6.77-4.49a2,2,0,0,1,1.14-.27c2.52.19,5,.38,7.55.66,2,.23,4,.7,6,.87,3.88.32,7.78.4,11.64.82a4.24,4.24,0,0,1,2.7,1.69c.33.48-.23,1.72-.62,2.49a1.81,1.81,0,0,1-1.43.7c-11.22-.65-22.44-1.35-33.66-2Z"/><path class="cls-5" d="M85.55,252.83A69.22,69.22,0,0,1,93,248.06c1.21-.59,2.94-.18,4.43-.08,3,.23,6.09.5,9.12.85,2.62.31,5.21.8,7.83,1.14a53.33,53.33,0,0,1,5.54.62c.86.21,2.25,1.38,2.15,1.84-.28,1.3-.73,2.73-2.85,2.58-10.77-.78-21.56-1.38-32.34-2C86.61,253,86.38,252.92,85.55,252.83Z"/><path class="cls-2" d="M174.24,342.56c-.5-4.93-4.23-6.84-7.07-9.69l-.46.33,1.28,1.72c3.2,4.31,3.48,7.15.49,11.1a52.45,52.45,0,0,1-13.35,12.16,207.65,207.65,0,0,1-27.49,14.48,44,44,0,0,1,6.86,1c1.29.35,2.34,1.79,3.39,2.84q3,3,5.89,6.15a130.46,130.46,0,0,0,20.31-13c1.72-1.36,3.23-3,5-4.3,2.7-2,4.84-4.22,5.5-7.67C175.57,352.65,174.76,347.65,174.24,342.56Z"/><path class="cls-6" d="M120.92,176.19l1.06-4.86c3.48.31,7.17.68,10.86,1,.89.07,1.81-.26,2.72-.22,5.55.23,11.1.55,16.66.76,1.83.06,2.87,1.22,3.8,2.47a2,2,0,0,1,0,1.85,2.6,2.6,0,0,1-1.88.84c-2.44,0-4.89-.21-7.33-.33l-25.32-1.34A3.27,3.27,0,0,1,120.92,176.19Z"/><path class="cls-7" d="M120.7,353l0-4.14,40.69,1.24c-1.87,1.56-3.28,2.78-4.74,3.92a2.09,2.09,0,0,1-1.3.34C143.88,353.93,132.37,353.46,120.7,353Z"/><path class="cls-6" d="M123.77,254.78l1.21-4.32c4.45.32,9.16.68,13.87,1,1.1.06,2.22-.25,3.32-.21,4.07.15,8.14.26,12.19.63a8.08,8.08,0,0,1,3.85,1.56,3.07,3.07,0,0,1,.52,2.61c-.11.48-1.27,1-1.94,1q-11.34-.51-22.68-1.22C130.74,255.59,127.37,255.14,123.77,254.78Z"/><path class="cls-7" d="M121.23,273.41l0-4.05,40.51,1.25c-2.59,2.21-4.52,4.46-8.45,4.18-10.29-.73-20.63-.9-30.95-1.3C122.06,273.48,121.74,273.45,121.23,273.41Z"/><path class="cls-6" d="M113,291.17a3.68,3.68,0,0,1-1.13.41c-9.64,0-19.27-.06-28.91-.1a3,3,0,0,1-2.79-3.18c0-1.67.8-2.24,2.53-2.19,9.69.24,19.39.37,29.09.55a12.58,12.58,0,0,1,1.71.24l-.66,3.5a24.66,24.66,0,0,1-2.8.36c-3.2,0-6.4-.06-9.6-.1V291Z"/><path class="cls-7" d="M144.3,191.2l14.37.17.13.58c-2.5,1.67-4.21,4.19-8.14,3.89-10-.76-20-.91-30.08-1.3-.65,0-1.3-.1-2-.16l0-3.55,20.19.24L128.22,191c5.19.46,10.39.52,15.59.57C144,191.52,144.13,191.31,144.3,191.2Z"/><path class="cls-6" d="M102.28,208l8.68.1-.77,4.6c-2.66,0-5.65-.08-8.63-.1L81,212.49c-3.09,0-4.24-1.72-3.1-4.79,3.68,0,7.4.1,11.13.12a20.84,20.84,0,0,0,2.33-.28,7.25,7.25,0,0,0,1.48.36C96,208,99.15,208,102.28,208Z"/><path class="cls-5" d="M134,287.77a60.23,60.23,0,0,0-5.83,2.82c-3.63,2.25-7.55,1.24-11.37,1.21-.59,0-1.41-1-1.69-1.7-.17-.44.35-1.34.81-1.78a5.38,5.38,0,0,1,4.29-1.57c4.52.23,9,.17,13.57.22Z"/><path class="cls-5" d="M112.11,211.4c2.11-3.19,4.59-3.87,7.7-3.63,4,.32,8,.16,12,.21l.14.56c-2.47,1.15-5,2.18-7.4,3.47-3.39,1.84-7,.71-10.45.79C113.38,212.82,112.65,211.8,112.11,211.4Z"/><path class="cls-4" d="M117.81,237.47c3.13-1.23,6.2-2.68,9.42-3.61,2.52-.73,4.78,2.28,3.79,4.74a1.69,1.69,0,0,1-1.28.85c-3.48-.14-7-.37-10.44-.64a4.84,4.84,0,0,1-1.54-.77Z"/><path class="cls-4" d="M115.49,317.55c4-1.34,7.86-2.8,11.87-3.94A3.21,3.21,0,0,1,130,315c.49.92.24,2.26.23,3.42,0,.15-.52.44-.79.43-4.61-.18-9.22-.39-13.83-.59Z"/><path class="cls-4" d="M107.49,272.93a14.17,14.17,0,0,0-2.12-.34c-4.75-.09-9.5-.13-14.24-.59l22.82.28v.84Z"/><path class="cls-8" d="M78.66,192.83l22.82.27v.47l-18.93-.22-4.31-.07Z"/><path d="M76.5,205.57a6,6,0,0,1,2-1c2.54-.2,5.09-.21,7.63-.28l1.4,1c-3.28,0-6-.1-8.75-.09A15.09,15.09,0,0,0,76.5,205.57Z"/><path d="M101.19,294a5.74,5.74,0,0,1-1.32.31q-8.85-.07-17.71-.22a5.93,5.93,0,0,1-1.48-.4Z"/><path class="cls-4" d="M78.66,192.83l-.42.45c-2.78,0-5.56,0-8.34-.08-.85,0-1.76-.07-1-1.34,2.31.18,4.61.34,6.91.54C76.75,192.49,77.71,192.69,78.66,192.83Z"/><path class="cls-9" d="M144.3,191.2c-.17.11-.33.32-.49.32-5.2-.05-10.4-.11-15.59-.57l10.56.12Z"/><path class="cls-6" d="M113,291.17,100.47,291v-.36c3.2,0,6.4.11,9.6.1a24.66,24.66,0,0,0,2.8-.36Z"/><path class="cls-4" d="M113.94,273.12v-.84l4.06,0,.78-2,.1,2.86Z"/><path class="cls-4" d="M89.56,189.37c-1.7.1-3.4.26-5.1.29a24.14,24.14,0,0,1-6.15-.52l5.35.06Z"/><path class="cls-4" d="M98.28,268.52l-10.84.36v-.61l4.14.05Z"/><path class="cls-6" d="M102.28,208c-3.13,0-6.27,0-9.41-.1a7.25,7.25,0,0,1-1.48-.36c3.29,0,6.59,0,9.89.07A3.1,3.1,0,0,1,102.28,208Z"/><path d="M131.59,241.74c-.92.1-1.84.24-2.76.28-1.74.06-3.49,0-5.24.08l-1.08-.45,0-.44Z"/><path class="cls-4" d="M105,190.28l-9.75-.11v-.43l5.74.07Z"/><path class="cls-1" d="M909.47,467.49H0V0H909.47ZM7,460.49H902.47V7H7Z"/></g></svg>