<?xml version="1.0" encoding="UTF-8"?>
<svg id="Layer_1" data-name="Layer 1" xmlns="http://www.w3.org/2000/svg" viewBox="0 0 341.89 112.25">
  <defs>
    <style>
      .cls-1 {
        fill: #031f4b;
      }

      .cls-2 {
        fill: #66a7dd;
      }

      .cls-3 {
        fill: #ffd494;
      }

      .cls-4 {
        fill: #fe94b3;
      }

      .cls-5 {
        fill: #ff910d;
      }

      .cls-6 {
        fill: #fe9cbd;
      }

      .cls-7 {
        fill: #28649e;
      }

      .cls-8 {
        fill: #82d978;
      }

      .cls-9 {
        fill: #5fd94c;
      }
    </style>
  </defs>
  <path class="cls-2" d="m50.24,83.3v24.6h-10.93c-20.13,0-30.2-10.02-30.2-30.07v-19.26H0v-24.08h9.11v-17.7h28.89v17.7h11.97v24.08h-11.97v19.78c0,1.74.41,2.99,1.24,3.77.82.78,2.19,1.17,4.1,1.17h6.9Z"/>
  <path class="cls-2" d="m118.96,76.27h-46.46c.43,6.33,3.08,9.5,7.94,9.5,3.12,0,5.38-1.43,6.77-4.29h30.59c-1.04,5.21-3.23,9.87-6.57,13.99-3.34,4.12-7.55,7.38-12.62,9.76-5.08,2.39-10.65,3.58-16.72,3.58-7.29,0-13.78-1.52-19.46-4.56-5.68-3.04-10.11-7.4-13.28-13.08-3.17-5.68-4.75-12.34-4.75-19.98s1.58-14.29,4.75-19.98c3.17-5.68,7.59-10.04,13.28-13.08,5.68-3.04,12.17-4.56,19.46-4.56s13.77,1.5,19.46,4.49c5.68,2.99,10.11,7.27,13.28,12.82,3.17,5.55,4.75,12.1,4.75,19.65,0,2-.13,3.9-.39,5.73Zm-28.89-12.62c0-2.43-.78-4.27-2.34-5.53-1.56-1.26-3.51-1.89-5.86-1.89-5.12,0-8.11,2.47-8.98,7.42h17.18Z"/>
  <path class="cls-2" d="m186.12,76.27h-46.46c.43,6.33,3.08,9.5,7.94,9.5,3.12,0,5.38-1.43,6.77-4.29h30.59c-1.04,5.21-3.23,9.87-6.57,13.99-3.34,4.12-7.55,7.38-12.62,9.76-5.08,2.39-10.65,3.58-16.72,3.58-7.29,0-13.78-1.52-19.46-4.56-5.68-3.04-10.11-7.4-13.28-13.08-3.17-5.68-4.75-12.34-4.75-19.98s1.58-14.29,4.75-19.98c3.17-5.68,7.59-10.04,13.28-13.08,5.68-3.04,12.17-4.56,19.46-4.56s13.77,1.5,19.46,4.49c5.68,2.99,10.11,7.27,13.28,12.82,3.17,5.55,4.75,12.1,4.75,19.65,0,2-.13,3.9-.39,5.73Zm-28.89-12.62c0-2.43-.78-4.27-2.34-5.53-1.56-1.26-3.51-1.89-5.86-1.89-5.12,0-8.11,2.47-8.98,7.42h17.18Z"/>
  <path class="cls-2" d="m302.41,42.43c5.16,5.64,7.74,13.28,7.74,22.91v42.56h-28.76v-38.92c0-3.12-.93-5.57-2.8-7.35-1.87-1.78-4.36-2.67-7.48-2.67s-5.73.89-7.55,2.67c-1.82,1.78-2.73,4.23-2.73,7.35v38.92h-28.76v-38.92c0-3.12-.93-5.57-2.8-7.35-1.87-1.78-4.36-2.67-7.48-2.67s-5.73.89-7.55,2.67c-1.82,1.78-2.73,4.23-2.73,7.35v38.92h-28.89V34.49h28.89v9.89c2.08-3.12,4.92-5.64,8.53-7.55,3.6-1.91,7.83-2.86,12.69-2.86,5.29,0,9.98,1.15,14.06,3.45,4.08,2.3,7.33,5.53,9.76,9.7,2.69-3.82,6.12-6.96,10.28-9.44s8.76-3.71,13.8-3.71c9.37,0,16.64,2.82,21.8,8.46Z"/>
  <path class="cls-2" d="m312.1,24.6c3.04,2.69,7.07,4.03,12.1,4.03s8.94-1.34,11.97-4.03c3.04-2.69,4.56-6.07,4.56-10.15s-1.52-7.61-4.56-10.35c-3.04-2.73-7.03-4.1-11.97-4.1s-9.07,1.37-12.1,4.1c-3.04,2.73-4.56,6.18-4.56,10.35s1.52,7.46,4.56,10.15Z"/>
  <g>
    <path class="cls-7" d="m310.01,78.02c-.2-1-.43-1.85-.55-2.73-.29-2.22-.15-4.49.42-6.63.27-.88.68-1.69,1.21-2.38,2.48-3.42,5.87-5.24,9.19-7.14,3.51-2.02,7.06-3.92,10.58-5.95,2.14-1.21,4.13-2.75,5.92-4.58.79-.82,1.41-1.88,2.07-2.87.58-.87.41-1.8-.01-2.7-.13-.27-.27-.54-.48-.97.76.43,1.37.91,1.56,1.68.5,2.03.83,4.1.51,6.23-.11.89-.48,1.71-1.04,2.3-1.84,1.9-3.8,3.62-5.87,5.14-3.61,2.68-7.57,4.4-11.46,6.3-2.51,1.23-5,2.53-7.17,4.53-2.15,1.97-3.7,4.72-4.42,7.83-.14.59-.27,1.18-.43,1.94Z"/>
    <path class="cls-7" d="m339.76,68.72c1.01.51,1.45,1.29,1.54,2.34.13,1.51.33,3.02.33,4.53.05,1.23-.43,2.4-1.28,3.09-1.16.96-2.15,2.22-3.3,3.21-3.01,2.59-6.35,4.47-9.8,6.11-2.76,1.32-5.45,2.86-8.2,4.23-1.76.89-3.15,2.32-4.47,3.88-1.57,1.86-2.49,4.15-3.09,6.65-.08.42-.23.81-.43,1.16-.16-.89-.37-1.78-.48-2.68-.23-2.1-.08-4.24.44-6.26.23-.8.59-1.54,1.05-2.18,1.22-1.88,2.87-3.17,4.56-4.37,3.85-2.72,8.03-4.71,12.07-6.98,2.75-1.54,5.46-3.17,7.93-5.29,1.3-1.12,2.49-2.37,3.34-4.02.48-.93.41-1.76-.01-2.65-.09-.25-.16-.51-.21-.77Z"/>
    <path class="cls-7" d="m320.06,33.09c.36,1.38.72,2.77,1.07,4.13-1.19.68-2.37,1.29-3.5,2.01-1.57.94-2.99,2.18-4.22,3.66-1.56,1.92-2.69,4.27-3.29,6.85-.09.53-.16,1.06-.2,1.6-.06-.11-.11-.22-.15-.33-.98-3.13-.85-6.29-.05-9.4.21-.81.75-1.56,1.27-2.19,1.06-1.3,2.19-2.53,3.38-3.67,1.44-1.34,3.05-2.42,4.77-3.18.63-.27.71-.23.91.52Z"/>
    <path class="cls-1" d="m320.88,82l2.68,1.24c-.3.19-.43.29-.58.36-1.47.75-2.94,1.48-4.4,2.23-.24.14-.53.11-.74-.07-1.77-1.18-3.42-2.6-4.92-4.22-.61-.73-1.17-1.51-1.67-2.34-.46-.69-.4-1.54-.31-2.33.09-.66.3-1.3.6-1.87v.44s.07.07.09.06c1.45-.41,2.3.76,3.21,1.75.41.45.84.88,1.37,1.45-.32.03-.49.06-.66.06-.84.01-1.34.65-1.13,1.66.12.55.47,1.03.72,1.55.13.06.27.11.42.13,1.66,0,3.31,0,4.97,0,.12-.02.24-.05.36-.1Z"/>
    <path class="cls-1" d="m334.68,96.6l1.91.1c.35.01.7.13.91-.4s.43-1.13.09-1.7c-.32-.63-.88-1.02-1.49-1.06-1.68-.05-3.37-.11-5.07-.21-.39-.04-.77-.17-1.11-.38-.85-.5-1.65-1.07-2.48-1.61-.1-.07-.19-.17-.43-.37.62-.03,1.25-.03,1.87.02.41.09.79-.22.87-.7,0,0,0,0,0,0,.27-.92,0-1.7-.54-2.4.37-.37.68-.36,1.09-.04,1.93,1.51,3.94,2.88,5.82,4.47,1.14,1.03,2.2,2.17,3.18,3.4.89,1.05.87,1.99.05,3.11-.2.35-.47.66-.77.88-.29.08-.59,0-.83-.22-1-.9-1.97-1.85-3.07-2.9Z"/>
    <path class="cls-1" d="m329.15,64.45c.67-1.09.63-1.88-.17-3.14.38-.41.72-.26,1.12.04,1.48,1.12,3.03,2.12,4.47,3.29,1.23,1.02,2.4,2.11,3.53,3.28.5.56.95,1.19,1.34,1.88.38.63.44,1.33-.02,1.97-.24.34-.47.7-.67,1.08-.2.41-.64.54-.99.3-.02-.01-.04-.03-.05-.04-1.07-.91-2.07-1.93-3.17-2.97.69-.01,1.27-.02,1.86,0,.36.02.7.08.89-.44s.4-1.1.07-1.64c-.38-.6-.83-1.05-1.54-1.06-1.79-.04-3.57-.15-5.36-.25-.18,0-.37-.07-.53-.17-1.01-.65-2.01-1.33-3.01-1.99.49,0,.98-.01,1.47-.05.26.01.51-.04.77-.08Z"/>
    <path class="cls-1" d="m325.93,38.41c1.43-.77,2.78-1.51,4.13-2.21.17-.05.36,0,.5.11,1.7,1.28,3.45,2.51,5.11,3.91.9.81,1.72,1.75,2.43,2.8.74,1.04.68,1.58.03,2.7-.15.26-.31.51-.47.75-.39.59-.83.65-1.35.17-.98-.93-1.96-1.87-2.94-2.8h1.8c.33,0,.7.22.92-.35s.44-1.13.12-1.71c-.3-.64-.86-1.05-1.47-1.09-1.73-.05-3.46-.12-5.19-.23-.35-.04-.69-.17-1-.37-.86-.51-1.69-1.08-2.62-1.69Z"/>
    <path class="cls-1" d="m324.06,109.87c-1.48.78-2.95,1.55-4.44,2.3-.16.09-.34.1-.5.03-1.84-1.35-3.67-2.72-5.22-4.53-.43-.5-.83-1.04-1.19-1.62-.86-1.41-.93-2.19-.42-3.78.77-.05,1.52-.1,2.28-.14.11.01.21.06.28.15.79.85,2.41,2.72,2.44,2.8-.46.05,5.95,3.76,6.75,4.18.16.07.19.52.02.61Z"/>
    <path class="cls-1" d="m313.52,52.63c-.41.84-.56,1.7.09,2.46.22.27.51.45.83.5.86.06,1.73,0,2.6,0,1.09.02,2.18.07,3.27.11.49-.02.99,0,1.48.07.51.17,1,.38,1.48.65-.12.13-.25.24-.39.34-1.55.79-3.1,1.58-4.65,2.35-.14.08-.31.08-.45,0-1.86-1.34-3.71-2.72-5.27-4.53-.55-.7-1.05-1.45-1.48-2.25-.5-.82-.4-1.75-.23-2.66.07-.18.2-.3.36-.34.7-.03,1.4-.02,2.09,0,.19.05.37.16.51.33.83.83,1.65,1.67,2.48,2.5-.71.03-1.43.05-2.14.12-.2.07-.39.18-.56.34Z"/>
    <path class="cls-8" d="m312.56,101.37c.17-.51.3-.92.47-1.31.09-.13.22-.21.36-.21,4.13.1,8.26.21,12.4.32.05.01.1.03.15.06l.02,1.33-13.39-.2Z"/>
    <path class="cls-8" d="m322.54,74.95l-6.98-.07c-1.05,0-2.1,0-3.26,0,.19-.54.33-.97.5-1.38.07-.12.18-.2.31-.2,1.65.05,3.3.11,4.95.18h-1.16s0,.2,0,.2l3.04-.16c.99.06,1.97.15,2.96.18.8.02,1.61-.04,2.41-.06.23,0,.48-.04.4.4l-.21.67-1.14.02h-6.4c1.33.12,2.67.12,4,.13.2.02.4.05.6.1Z"/>
    <path class="cls-8" d="m321.44,47.41c.98-.01,1.96-.07,2.95-.04.08,0,.19.59.19.91,0,.12-.28.34-.42.34-1.59.02-3.18.05-4.77.02-1.4-.02-2.81-.08-4.21-.11h5.31s0-.16,0-.16h-6.4c-.28-.04-.54-.1-.81-.13-.65-.06-1.29-.1-1.94-.15l.31-.96h3.8s-1.5,0-1.5,0c.57.14,1.15.19,1.73.15.48,0,.95-.08,1.43-.12l3.2.1h-1.61s0,.14,0,.14h2.74Z"/>
    <path class="cls-5" d="m316.73,94.7c.63-.51,1.24-1.06,1.89-1.51.2-.14.51-.05.77-.03,1.8.16,3.59.32,5.38.52.56.07,1.12.2,1.66.4.18.13.29.37.29.62-.09.37-.17.81-.68.77-1.27-.11-2.55-.15-3.83-.22l-4.9-.28c-.18,0-.37-.04-.55-.07l-.04-.18Z"/>
    <path class="cls-3" d="m327.16,95.49l.43-1.43c.86-.1,1.79-.25,2.73.06.39.12.84-.07,1.27-.06,1.56.06,3.12.1,4.67.26.32.04.68.51.89.89s-.17.78-.61.77c-.68-.02-1.35-.05-2.03-.09l-7.05-.37c-.09,0-.18-.02-.31-.04Z"/>
    <path class="cls-5" d="m315.28,41.91c.62-.51,1.25-1.02,1.88-1.52.1-.07.21-.1.32-.09.71.05,1.4.11,2.12.19.56.07,1.13.22,1.69.27,1.09.09,2.18.1,3.27.23.31.06.58.26.77.55.09.16-.06.57-.16.83-.09.15-.24.24-.4.24-3.15-.17-6.3-.36-9.45-.53l-.03-.16Z"/>
    <path class="cls-5" d="m316.29,68.34c.66-.59,1.35-1.13,2.07-1.62.34-.2.82-.07,1.24-.04.84.06,1.71.14,2.56.25.74.09,1.47.25,2.2.35.52.03,1.04.09,1.56.18.24.07.64.45.61.6-.07.43-.19.91-.79.87-3.03-.22-6.06-.37-9.08-.53-.08,0-.14-.03-.37-.05Z"/>
    <path class="cls-7" d="m341.61,97.88c-.16-1.64-1.22-2.26-2.03-3.2l-.13.11.37.57c.92,1.42,1.01,2.37.19,3.7-1.02,1.61-2.27,3-3.69,4.11-2.44,1.87-4.99,3.52-7.64,4.94.65.04,1.29.14,1.93.3.36.11.67.59.97.93.57.66,1.13,1.33,1.68,2.03,1.99-1.26,3.88-2.74,5.63-4.42.48-.46.89-1.01,1.38-1.45.75-.68,1.34-1.43,1.51-2.58.25-1.68,0-3.34-.17-5.04Z"/>
    <path class="cls-3" d="m325.84,42.65l.27-1.62c.98.09,2.01.2,3.05.29.25.02.51-.09.76-.08,1.56.05,3.12.14,4.68.18.51.01.81.39,1.08.81.09.19.09.42,0,.62-.13.18-.32.28-.52.29-.68.01-1.37-.05-2.06-.08l-7.11-.34c-.05-.01-.11-.03-.16-.05Z"/>
    <path class="cls-4" d="m326.64,101.59l-.02-1.38,11.42.25c-.52.53-.91.94-1.31,1.33-.11.09-.23.13-.36.12-3.22-.1-6.45-.2-9.73-.31Z"/>
    <path class="cls-3" d="m327.02,68.83l.32-1.45c1.25.09,2.57.19,3.9.28.31.02.62-.09.93-.08,1.14.03,2.29.05,3.42.16.39.05.77.23,1.09.5.16.25.22.57.16.87-.03.16-.35.34-.54.34-2.12-.08-4.25-.19-6.37-.31-.95-.07-1.89-.2-2.91-.31Z"/>
    <path class="cls-4" d="m326.4,75.05l-.02-1.35,11.37.25c-.72.75-1.25,1.51-2.35,1.43-2.89-.2-5.79-.21-8.69-.31-.08,0-.17-.01-.31-.02Z"/>
    <path class="cls-3" d="m324.18,81.01c-.1.07-.2.12-.32.14-2.7.04-5.41.06-8.11.09-.46-.03-.82-.5-.8-1.05,0-.56.21-.75.7-.74,2.72.04,5.44.04,8.16.06.16.01.32.04.48.07l-.17,1.17c-.26.06-.52.11-.78.13-.9.01-1.8,0-2.69,0v.11s3.53,0,3.53,0Z"/>
    <path class="cls-4" d="m332.47,47.55h4.03s.04.19.04.19c-.69.57-1.16,1.41-2.26,1.33-2.81-.21-5.62-.22-8.45-.31-.18,0-.37-.03-.56-.05l-.02-1.18h5.67s-2.96.02-2.96.02c1.46.13,2.92.13,4.38.13.05-.02.09-.09.14-.13Z"/>
    <path class="cls-3" d="m320.76,53.33h2.44s-.19,1.53-.19,1.53c-.75.01-1.59,0-2.42,0l-5.77.05c-.87.01-1.2-.56-.89-1.58,1.03-.02,2.08,0,3.12,0,.22-.02.44-.05.65-.1.14.06.28.09.42.11.89.02,1.77,0,2.65,0Z"/>
    <path class="cls-5" d="m330.06,79.79c-.55.29-1.1.61-1.62.96-1.01.77-2.11.44-3.18.45-.17,0-.4-.33-.48-.56-.05-.15.09-.45.22-.6.31-.38.75-.58,1.2-.54,1.27.06,2.53.02,3.81.02l.07.27Z"/>
    <path class="cls-5" d="m323.54,54.42c.58-1.07,1.27-1.31,2.14-1.24,1.12.09,2.25.02,3.37.02l.04.19c-.69.39-1.39.75-2.06,1.19-.94.63-1.96.27-2.93.31-.2,0-.41-.33-.57-.46Z"/>
    <path class="cls-8" d="m325.27,63.09c.87-.42,1.73-.92,2.63-1.24.7-.25,1.35.74,1.09,1.56-.07.16-.2.27-.35.29-.98-.03-1.97-.09-2.93-.17-.16-.05-.3-.14-.44-.25v-.19Z"/>
    <path class="cls-8" d="m325.01,89.79c1.12-.46,2.19-.97,3.31-1.36.3,0,.58.17.75.45.14.3.08.75.08,1.14,0,.05-.14.15-.22.15-1.29-.04-2.59-.09-3.88-.14l-.04-.24Z"/>
    <path class="cls-8" d="m322.54,74.95c-.2-.05-.4-.09-.6-.1-1.33-.01-2.67,0-4-.14h6.4s0,.28,0,.28l-1.81-.04Z"/>
    <path class="cls-9" d="m314.06,48.37h6.4s0,.15,0,.15h-5.31s-1.21,0-1.21,0l.12-.15Z"/>
    <path d="m313.52,52.63c.17-.15.35-.27.56-.34.71-.08,1.43-.09,2.14-.12l.4.33c-.92.01-1.68,0-2.46,0-.22.02-.43.07-.64.13Z"/>
    <path d="m320.88,82c-.12.05-.24.09-.37.11-1.66,0-3.31,0-4.97,0-.14-.02-.28-.06-.42-.13l5.76.02Z"/>
    <path class="cls-8" d="m314.06,48.37l-.12.15c-.78.01-1.56.02-2.34,0-.24,0-.49-.02-.29-.44.65.05,1.3.09,1.94.15.26.03.53.09.8.13Z"/>
    <path class="cls-6" d="m332.47,47.55s-.09.11-.14.11c-1.46,0-2.92,0-4.38-.13h2.96s1.55.02,1.55.02Z"/>
    <path class="cls-3" d="m324.18,81.01h-3.52s0-.12,0-.12c.9-.01,1.8.01,2.69,0,.26-.03.52-.07.78-.13l.04.26Z"/>
    <path class="cls-8" d="m324.35,74.99v-.28s1.13-.02,1.13-.02l.21-.67.04.95h-1.39Z"/>
    <path class="cls-8" d="m317.1,47.17c-.48.04-.95.1-1.43.12-.58.04-1.16-.01-1.73-.15h1.5s1.66.03,1.66.03Z"/>
    <path class="cls-8" d="m319.94,73.52l-3.04.16v-.2s1.16,0,1.16,0l1.88.04Z"/>
    <path class="cls-3" d="m320.76,53.33c-.88.01-1.76.03-2.64,0-.14-.02-.28-.06-.42-.11.92-.01,1.85-.03,2.78-.02.1.02.2.06.28.13Z"/>
    <path d="m329.15,64.45c-.26.04-.52.09-.77.1-.49.03-.98.01-1.47.05l-.31-.15v-.15s2.55.14,2.55.14Z"/>
    <path class="cls-8" d="m321.44,47.41h-2.74s0-.14,0-.14h1.61s1.13.14,1.13.14Z"/>
  </g>
</svg>