<?xml version="1.0" encoding="UTF-8"?>
<svg id="Layer_1" data-name="Layer 1" xmlns="http://www.w3.org/2000/svg" viewBox="0 0 340.93 112.27">
  <defs>
    <style>
      .cls-1 {
        fill: #66a7dd;
      }
    </style>
  </defs>
  <path class="cls-1" d="m50.2,83.3v24.6h-10.9c-20.1,0-30.2-10-30.2-30.1v-19.3H0v-24.1h9.1v-17.7h28.9v17.7h12v24.1h-12v19.8c0,1.7.4,3,1.2,3.8s2.2,1.2,4.1,1.2h6.9Z"/>
  <path class="cls-1" d="m118.9,76.3h-46.4c.4,6.3,3.1,9.5,7.9,9.5,3.1,0,5.4-1.4,6.8-4.3h30.6c-1,5.2-3.2,9.9-6.6,14-3.3,4.1-7.5,7.4-12.6,9.8-5.1,2.4-10.7,3.6-16.7,3.6-7.3,0-13.8-1.5-19.5-4.6-5.7-3-10.1-7.4-13.3-13.1-3.2-5.7-4.8-12.3-4.8-20s1.6-14.3,4.8-20,7.6-10,13.3-13.1c5.7-3,12.2-4.6,19.5-4.6s13.8,1.5,19.5,4.5,10.1,7.3,13.3,12.8c3.2,5.6,4.8,12.1,4.8,19.7-.2,2-.3,3.9-.6,5.8Zm-28.9-12.7c0-2.4-.8-4.3-2.3-5.5-1.6-1.3-3.5-1.9-5.9-1.9-5.1,0-8.1,2.5-9,7.4h17.2Z"/>
  <path class="cls-1" d="m186.1,76.3h-46.5c.4,6.3,3.1,9.5,7.9,9.5,3.1,0,5.4-1.4,6.8-4.3h30.6c-1,5.2-3.2,9.9-6.6,14-3.3,4.1-7.5,7.4-12.6,9.8-5.1,2.4-10.7,3.6-16.7,3.6-7.3,0-13.8-1.5-19.5-4.6-5.7-3-10.1-7.4-13.3-13.1-3.2-5.7-4.8-12.3-4.8-20s1.6-14.3,4.8-20,7.6-10,13.3-13.1c5.7-3,12.2-4.6,19.5-4.6s13.8,1.5,19.5,4.5,10.1,7.3,13.3,12.8c3.2,5.6,4.8,12.1,4.8,19.7-.1,2-.2,3.9-.5,5.8Zm-28.9-12.7c0-2.4-.8-4.3-2.3-5.5-1.6-1.3-3.5-1.9-5.9-1.9-5.1,0-8.1,2.5-9,7.4h17.2Z"/>
  <path class="cls-1" d="m302.4,42.4c5.2,5.6,7.7,13.3,7.7,22.9v42.6h-28.8v-38.9c0-3.1-.9-5.6-2.8-7.4-1.9-1.8-4.4-2.7-7.5-2.7s-5.7.9-7.5,2.7-2.7,4.2-2.7,7.4v38.9h-28.8v-38.9c0-3.1-.9-5.6-2.8-7.4-1.9-1.8-4.4-2.7-7.5-2.7s-5.7.9-7.5,2.7-2.7,4.2-2.7,7.4v38.9h-28.9V34.5h28.9v9.9c2.1-3.1,4.9-5.6,8.5-7.5s7.8-2.9,12.7-2.9c5.3,0,10,1.2,14.1,3.4,4.1,2.3,7.3,5.5,9.8,9.7,2.7-3.8,6.1-7,10.3-9.4,4.2-2.5,8.8-3.7,13.8-3.7,9.3,0,16.5,2.8,21.7,8.4Z"/>
  <path class="cls-1" d="m311.1,24.6c3,2.7,7.1,4,12.1,4s8.9-1.3,12-4c3-2.7,4.6-6.1,4.6-10.2s-1.5-7.6-4.6-10.3c-3-2.7-7-4.1-12-4.1s-9.1,1.4-12.1,4.1c-3,2.7-4.6,6.2-4.6,10.3s1.5,7.5,4.6,10.2Z"/>
  <path class="cls-1" d="m309,78c-.2-1-.4-1.8-.5-2.7-.3-2.2-.2-4.5.4-6.6.3-.9.7-1.7,1.2-2.4,2.5-3.4,5.9-5.2,9.2-7.1,3.5-2,7.1-3.9,10.6-5.9,2.1-1.2,4.1-2.7,5.9-4.6.8-.8,1.4-1.9,2.1-2.9.6-.9.4-1.8,0-2.7-.1-.3-.3-.5-.5-1,.8.4,1.4.9,1.6,1.7.5,2,.8,4.1.5,6.2-.1.9-.5,1.7-1,2.3-1.8,1.9-3.8,3.6-5.9,5.1-3.6,2.7-7.6,4.4-11.5,6.3-2.5,1.2-5,2.5-7.2,4.5s-3.7,4.7-4.4,7.8c-.2.7-.3,1.3-.5,2Z"/>
  <path class="cls-1" d="m339.17,68.98c1.13.52,1.03,1.02,1.03,2.02.1,1.5.3,3,.3,4.5.1,1.2-.4,2.4-1.3,3.1-1.2,1-2.1,2.2-3.3,3.2-3,2.6-6.3,4.5-9.8,6.1-2.8,1.3-5.4,2.9-8.2,4.2-1.8.9-3.2,2.3-4.5,3.9-1.6,1.9-2.5,4.2-3.1,6.7-.1.4-.2.8-.4,1.2-.2-.9-.4-1.8-.5-2.7-.2-2.1-.1-4.2.4-6.3.2-.8.6-1.5,1.1-2.2,1.2-1.9,2.9-3.2,4.6-4.4,3.9-2.7,8-4.7,12.1-7,2.7-1.5,5.5-3.2,7.9-5.3,1.3-1.1,2.5-2.4,3.3-4,.5-.9.61-1.7.21-2.5-.41-.3-.41-.52.16-.52Z"/>
  <path class="cls-1" d="m319,33.1c.4,1.4.7,2.8,1.1,4.1-1.2.7-2.4,1.3-3.5,2-1.6.9-3,2.2-4.2,3.7-1.6,1.9-2.7,4.3-3.3,6.8-.1.5-.2,1.1-.2,1.6-.1-.1-.1-.2-.2-.3-1-3.1-.9-6.3,0-9.4.2-.8.7-1.6,1.3-2.2,1.1-1.3,2.2-2.5,3.4-3.7,1.4-1.3,3.1-2.4,4.8-3.2q.6-.2.8.6Z"/>
  <path class="cls-1" d="m319.9,82l2.7,1.2c-.3.2-.4.3-.6.4-1.5.7-2.9,1.5-4.4,2.2-.2.1-.5.1-.7-.1-1.8-1.2-3.4-2.6-4.9-4.2-.6-.7-1.2-1.5-1.7-2.3-.5-.7-.4-1.5-.3-2.3.1-.7.16-.65.46-1.25h0l.24-.15c1.5-.4,2.3.8,3.2,1.7.4.4.85.4,1.29,1.05,0,.48-.39.55-.59.55-.8,0-1.3.7-1.1,1.7.1.6.5,1,.7,1.5.1.1.3.1.4.1h5s.1-.1.3-.1Z"/>
  <path class="cls-1" d="m333.7,96.6l1.9.1c.3,0,.7.1.9-.4s.4-1.1.1-1.7c-.3-.6-.9-1-1.5-1.1-1.7,0-3.4-.1-5.1-.2-.4,0-.8-.2-1.1-.4-.8-.5-1.7-1.1-2.5-1.6l-.4-.4h1.9c.4.1.8-.2.9-.7h0c.3-.9,0-1.7-.5-2.4.4-.4.7-.4,1.1,0,1.9,1.5,3.9,2.9,5.8,4.5,1.1,1,2.2,2.2,3.2,3.4.9,1,.9,2,0,3.1-.2.4-.5.7-.8.9-.3.1-.6,0-.8-.2-1.1-.9-2-1.9-3.1-2.9Z"/>
  <path class="cls-1" d="m328.1,64.4c1.4-.91-1.25-4.12.9-3.1,3.05,2.86,11.87,6.57,8.6,11.6-1.47,1.29-3-1.85-4.3-2.7,1.57.14,3.69.14,2.9-2-1.53-1.61-14.08-2.21-8.1-3.8Z"/>
  <path class="cls-1" d="m324.9,38.4c1.4-.8,2.8-1.5,4.1-2.2.2,0,.4,0,.5.1,1.7,1.3,3.5,2.5,5.1,3.9.9.8,1.7,1.7,2.4,2.8.7,1,.7,1.6,0,2.7-.2.3-.3.5-.5.8-.4.6-.8.6-1.3.2-1-.9-2-1.9-2.9-2.8h1.8c.3,0,.7.2.9-.3.2-.6.4-1.1.1-1.7-.3-.6-.9-1.1-1.5-1.1-1.7-.1-3.5-.1-5.2-.2-.4,0-.7-.2-1-.4-.7-.6-1.6-1.2-2.5-1.8Z"/>
  <path class="cls-1" d="m323,109.9c-1.5.8-3,1.5-4.4,2.3-.2.1-.3.1-.5,0-1.8-1.3-3.7-2.7-5.2-4.5-.4-.5-.8-1-1.2-1.6-.9-1.4-.9-2.2-.4-3.8.8,0,1.5-.1,2.3-.1.1,0,.2.1.3.2.8.8,2.4,2.7,2.4,2.8-.5,0,5.9,3.8,6.8,4.2.1-.1.1.4-.1.5Z"/>
  <path class="cls-1" d="m312.5,52.6c-2.88,6.73,19.72.28,4.2,6.4-2.61-2.07-8.87-5.91-6.6-9.7,2.96-.27,6.99,2.95,2.4,3.3Z"/>
  <path class="cls-1" d="m311.5,101.4c.2-.5.3-.9.5-1.3.1-.1.2-.2.4-.2,4.1.1,8.3.2,12.4.3q.1,0,.1.1v1.3l-13.4-.2Z"/>
  <path class="cls-1" d="m315.7,94.7c.6-.5,1.2-1.1,1.9-1.5.2-.1.5-.1.8,0,1.8.2,3.6.3,5.4.5.6.1,1.1.2,1.7.4.2.1.3.4.3.6-.1.4-.2.8-.7.8-1.3-.1-2.6-.1-3.8-.2l-4.9-.3c-.2,0-.4,0-.5-.1l-.2-.2Z"/>
  <path class="cls-1" d="m326.1,95.5l.4-1.4c.9-.1,1.8-.2,2.7.1.4.1.8-.1,1.3-.1,1.6.1,3.1.1,4.7.3.3,0,.7.5.9.9s-.2.8-.6.8c-.7,0-1.4-.1-2-.1l-7-.4c-.1-.1-.2-.1-.4-.1Z"/>
  <path class="cls-1" d="m314.3,41.9c.6-.5,1.2-1,1.9-1.5.1-.1.2-.1.3-.1.7.1,1.4.1,2.1.2.6.1,1.1.2,1.7.3,1.1.1,2.2.1,3.3.2.3.1.6.3.8.6.1.2-.1.6-.2.8-.1.1-.2.2-.4.2-3.2-.2-6.3-.4-9.5-.5v-.2Z"/>
  <path class="cls-1" d="m315.3,68.3c.7-.6,1.3-1.1,2.1-1.6.3-.2.8-.1,1.2,0,.8.1,1.7.1,2.6.2.7.1,1.5.2,2.2.3.5,0,1,.1,1.6.2.2.1.6.5.6.6-.1.4-.2.9-.8.9-3-.2-6.1-.4-9.1-.5-.1,0-.2,0-.4-.1Z"/>
  <path class="cls-1" d="m340.6,97.9c-.2-1.6-1.2-2.3-2-3.2l-.1.1.4.6c.9,1.4,1,2.4.2,3.7-1,1.6-2.3,3-3.7,4.1-1.89,1.72-8.46,4.52-7.6,4.9.75.55,1.3.1,1.9.3.4.1.7.6,1,.9.6.7,1.1,1.3,1.7,2,2-1.3,3.9-2.7,5.6-4.4.5-.5.9-1,1.4-1.5.7-.7,1.3-1.4,1.5-2.6.1-1.6-.1-3.2-.3-4.9Z"/>
  <path class="cls-1" d="m324.8,42.6l.3-1.6c1,.1,2,.2,3.1.3.3,0,.5-.1.8-.1,1.6.1,3.1.1,4.7.2.5,0,.8.4,1.1.8.1.2.1.4,0,.6-.1.2-.3.3-.5.3-.7,0-1.4,0-2.1-.1l-7.1-.3q-.2,0-.3-.1Z"/>
  <path class="cls-1" d="m310.4,48.35l.39-1.6c1.31.1,2.63.2,4.07.3.39,0,.66-.1,1.05-.1,2.1.1,4.07.1,6.18.2.66,0,1.05.4,1.45.8.13.2.13.4,0,.6-.13.2-.39.3-.66.3-.92,0-1.84,0-2.76-.1l-9.33-.3q-.26,0-.39-.1Z"/>
  <path class="cls-1" d="m325.6,101.6v-1.4l11.4.2-1.3,1.3c-.1.1-.2.1-.4.1-3.2,0-6.4-.1-9.7-.2Z"/>
  <path class="cls-1" d="m326,68.8l.3-1.4c1.3.1,2.6.2,3.9.3.3,0,.6-.1.9-.1,1.1,0,2.3.1,3.4.2.4.1.8.2,1.1.5.2.2.2.6.2.9,0,.2-.4.3-.5.3-2.1-.1-4.2-.2-6.4-.3-.9-.1-1.9-.3-2.9-.4Z"/>
  <path class="cls-1" d="m324.44,75l-.24-1.44c-1.74-.1-3.49-.2-5.23-.29-.4-.05-.79-.19-1.19-.24-1.47-.17-3.08-.25-4.55-.32-.54.04-1.09.08-1.52.33-.29.17-.33.57-.37.86-.02.2.5.36.63.37,2.81.22,5.62.44,8.56.67,1.21.04,2.57,0,3.91.04Z"/>
  <path class="cls-1" d="m325.4,75v-1.3l11.4.2c-.7.7-1.2,1.5-2.4,1.4-2.9-.2-5.8-.2-8.7-.3-.1.1-.2,0-.3,0Z"/>
  <path class="cls-1" d="m323.2,81c-.1.1-.2.1-.3.1-2.7,0-5.4.1-8.1.1-.5,0-.8-.5-.8-1,0-.6.2-.7.7-.7,2.7,0,5.4,0,8.2.1.2,0,.3,0,.5.1l-.2,1.2v.1Z"/>
  <path class="cls-1" d="m319.7,53.3h2.4c.44,3.02-6.52.91-8.4,1.5-3.77-2.37,4.53-1.5,6-1.5Z"/>
  <path class="cls-1" d="m329,79.8c-.6.3-1.1.6-1.6,1-1,.8-2.1.4-3.2.5-.2,0-.4-.3-.5-.6,0-.1.1-.4.2-.6.3-.4.7-.6,1.2-.5,1.3.1,2.5,0,3.8,0l.1.2Z"/>
  <path class="cls-1" d="m322.5,54.4c.6-1.1,1.3-1.3,2.1-1.2,1.1.1,2.2,0,3.4,0v.2c-.7.4-1.4.7-2.1,1.2-.9.6-2,.3-2.9.3-.1,0-.3-.4-.5-.5Z"/>
  <path class="cls-1" d="m324.3,63.1c.9-.4,1.7-.9,2.6-1.2.7-.3,1.4.7,1.1,1.6-.1.2-.2.3-.4.3-1,0-2-.1-2.9-.2-.2-.1-.3-.1-.4-.3v-.2Z"/>
  <path class="cls-1" d="m324,89.8c1.1-.5,2.2-1,3.3-1.4.3,0,.6.2.7.5.1.3.1.8.1,1.1,0,0-.1.1-.2.1-1.3,0-2.6-.1-3.9-.1v-.2Z"/>
  <path class="cls-1" d="m331.5,47.5h-4.5c1.47.1,2.84.1,4.3.1,0,0,0,0,0,0-1.5,0-2.9,0-4.4-.1h-2.7v1.2h.6c2.8.1,5.6.1,8.4.3,1.1.1,1.6-.7,2.3-1.3v-.2h-4Z"/>
</svg>